<?xml version="1.0" encoding="UTF-8"?>
<svg viewBox="0 0 128 128" xmlns="http://www.w3.org/2000/svg">
 <g transform="matrix(2.4697 0 0 2.4697 -245.48 4.3392)">
  <path d="m117.35373,17.95518c-.55153,1.20208-.97785,1.68642-1.89679,2.47408-.46779.40096-.85527,1.18979-1.0721,1.73185-.20883.52208-.55749,1.01822-.90716,1.48445-.38477.51303-.79666,1.209-1.23704,1.64938-.3863.3863-.90046.67535-1.31951.98963-.69873.52405-1.39617,1.14684-1.89679,1.81432-.42954.57272-.70393,1.28318-1.0721,1.89679-.38882.64803-.57537,1.23321-.90716,1.89679-.42445.8489-1.19452,1.10078-1.64939,1.89679-.30225.52894-.48836,1.03601-.82469,1.48445-.43011.57348 1.42736.16494 2.1442.16494 .7704,0 1.5194.16494 2.30914.16494 1.14156,0 2.27268.16494 3.46371.16494 1.50997,0 2.61699.21262 4.20593.60985 1.46333.36583 5.90764-1.25956 7.42223-1.76442 1.15649-.38549 1.43444-1.49094 2.63902-1.73185 .93209-.18642 1.52712-1.00159 2.1442-1.72151 .86342-1.00733 1.21316-.21073 2.55655.23706 .48087.16029.98963.21992 1.48444.32988 1.4385.31967 2.67576.91941 4.12346,1.40198 .18986.06329.38486.10996.57729.16494 1.20953.34558 3.33517.13522 4.53581-.16494 1.10089-.27522 2.12991-.28312 1.64938-1.48445-.2819-.70477-.77025-1.1826-1.31951-1.73185s-1.25025-1.14387-1.81432-1.56692c-.43526-.32645-.77098-.88222-.98963-1.31951-.38868-.77735-1.5336-1.5336-2.1442-2.1442-1.07919-1.07919-2.13115-2.03562-2.80395-3.38124-1.24448-2.48894-3.17672-4.72384-4.70075-7.00989-.91074-1.36611-1.02732-1.28182-2.22667-.08247-1.11844,1.11844-2.36971,1.92-3.38124,3.13383-.82938.99526-.96123,2.3035-1.81432,3.29877-.45379.52942-.46734.96214-.90717,1.0721-.67578.16895-1.14228-1.84765-1.23703-2.22667-.20574-.82295-1.23862-1.69141-1.97927-2.06173-.47218-.23609-.70005.04581-1.15457.32988z" fill="#e4e4e4" fill-rule="evenodd"/>
  <path d="m129.64165,13.74925c.97752-.97752-.06422,2.30931-.57728,3.46371-.39719.89368-.95265,1.82283-1.40198,2.72149-.36565.73129-.27714,1.83863-.57728,2.63902-.34172.91124-.58765,2.02568-1.48445,2.47408-.97866.48933-.62965.31679-1.56692.08247-.36268-.09067-.89426-.83498-1.0721-1.0721-.36381-.48508-.42784-.63014-.90716-.98963s-.19046-1.03807.08247-1.40198c.36744-.48992.64195-1.20142.90716-1.73185 .43192-.86383 1.29024-1.70258 1.97926-2.39161 .5127-.51269 1.14783-1.31782 1.81433-1.48445 .98237-.24559 1.55142-1.47928 2.55654-1.81432 .17495-.05831.16494-.32988.24741-.49482z" fill="#c8c8c8" fill-rule="evenodd"/>
  <path d="m117.84855,18.12012c.05077,1.59128.30229,3.25768-.31624,4.77758-.26873.75366-.38934,1.54909-.4567,2.34269-.24032,1.37503-.49296,2.80158-.14702,4.18262 .19344.79363.47649,1.58844.39228,2.41885-.05621,1.01902-.10494,2.03813-.13877,3.05808 .10606.58177-.20299,1.60497-.67305,1.50796-2.97827-.05989-6.43176-.04972-9.41047-.10508-.93813-.00596-1.72212-.5588-2.64747-.72796-.46686-.31545.11879-.81439.46375-.92221 .44666-.30216.6674-.81238.76099-1.32353 .4104-1.14419 1.25637-2.0474 1.92228-3.04289 .81059-1.04594 1.76535-1.97769 2.48958-3.09065 .48255-.69148.99397-1.39072 1.71584-1.85142 .62319-.44521 1.2303-.94644 1.61316-1.62222 .44112-.62908.99706-1.16569 1.49667-1.74376 .53388-.81122.73314-1.86437 1.5406-2.47703 .48889-.43416 1.00492-.85026 1.39457-1.38102z" fill="#c8c8c8" fill-rule="evenodd"/>
  <path d="m129.07993,11.90921c-.27941.07813-.5943.34742-.6875.71875-.10698.42628-.31777.64443-.53125.5625-.19637-.07535-.57852.23851-.84375.6875-.26325.44564-.77333.92879-1.125,1.0625-.62495.2376-3.38377,4.17342-3.96875,5.65625l-.3125.75-.25-.6875c-.80568-2.02951-1.11171-2.47914-2.28125-3.4375-1.15487-.94633-1.28792-.9973-1.53125-.5625-.14803.26451-.61476.86457-1.03125,1.34375s-1.25877,1.77678-1.84375,2.875c-.68724,1.29018-1.5365,2.41694-2.40625,3.15625-2.24361,1.90718-3.92574,3.63333-4.40625,4.5625-.2506.4846-.73458,1.20642-1.09375,1.59375s-.65626.85267-.65625,1.03125-.15572.489-.34375.6875c-.62975.66479-1.84376,2.65708-1.84375,3.03125 0,.20352.08736.46234.1875.5625 .22605.22605.30998.13922.875-.875 .34326-.61615 3.8623-5.83934 5.25-7.78125 .09012-.12612.61724-.36644 1.1875-.5625 1.12265-.38594 2.7072-2.29458 3.71875-4.5 .73975-1.61283 1.59937-2.81466 1.90625-2.625 .51349.31735.0616,3.61504-.84375,6.15625-.47903,1.3446-.54706,3.84008-.125,4.65625 .25184.487.38811,1.36795.34375,2.375-.04755,1.07908.05035,1.77782.3125,2.09375 .35842.43193.449.37756.90625-.5625 .55098-1.13276.61153-1.78815.25-2.5-.25858-.50915-.91328-3.01751-.90625-3.46875 .02746-1.75982.52608-4.17139 1.0625-5 .21541-.33277.47939-1.56861.5625-2.78125l.15625-2.21875 .625.59375c.34856.32745.89456,1.41362 1.21875,2.40625 .78391,2.40029 1.44029,3.41065 2.65625,4.15625 1.77431,1.08795 3.43439,2.42903 4.34375,3.46875 .76534.87506.90272.93788.90625.4375 .00225-.31774-.24459-.88556-.53125-1.25-.5982-.7605-4.28171-3.61947-5-3.875-.56614-.2014-1.22106-1.45626-.90625-1.75 .12007-.11203.27668-.06277.34375.125 .202.5656.59144.40111.4375-.1875-.20404-.78025 1.23564-3.66157 1.65625-3.3125 .22873.18983.77266-.2482 1.875-1.5 .85451-.97038 1.66809-1.96068 1.8125-2.21875s.33796-.41207.4375-.3125c.2998.29979-1.98976,7.11475-2.59375,7.71875-.54798.54798-.3147,1.45595.40625,1.59375 .37556.07179.71013.06059.71875-.03125 .19015-2.02489.40982-2.86407 1.21875-4.5 .53113-1.0741 1.03458-2.47709 1.125-3.125l.15625-1.1875 .71875,1.375c.3914.75394.97122,1.64888 1.28125,2s.62307.84442.71875,1.09375 .72914.79875 1.375,1.21875c1.38842.9029 1.6229,1.19064 2.53125,2.8125 .37862.67599.95938,1.6835 1.28125,2.25s1.39037,1.81431 2.375,2.75 1.91105,1.92985 2.0625,2.21875c.25148.47965 1.63269,1.45201 2.125,1.5 .50468.04918.10526-1.00538-.65625-1.75-.46086-.45066-1.01936-1.18126-1.25-1.625-.41607-.80048-1.19075-1.70627-3.6875-4.25-.71353-.72698-1.31248-1.38296-1.3125-1.46875 1e-005-.27012-2.75065-4.30393-4.46875-6.53125l-2.40625-3.125c-.41309-.53701-.74999-1.14076-.75-1.34375 1e-005-.34528-.25183-.45313-.53125-.375zm9.59375,13.96875c.01707-.01706.13985.08727.375.3125 .27074.25931.41561.5219.34375.59375s-.26986-.13758-.46875-.46875c-.17273-.28765-.26706-.42044-.25-.4375zm1.5,1.875c.17892-.0023.40716.13103.5.28125 .20958.3391.11847.3391-.40625,0-.24615-.15909-.28919-.27874-.09375-.28125zm-23.71875,1.09375c.13798,0 .29642.26206.375.5625 .18289.69937.03053.69937-.34375,0-.16151-.30178-.16986-.56249-.03125-.5625z" fill="#5c2700"/>
 </g>
</svg>
